<svg id="the-wh-logo-btca" xmlns="http://www.w3.org/2000/svg" xml:space="preserve" x="0" y="0" style="enable-background:new 0 0 593.1 471.2" version="1.1" viewBox="0 0 593.1 471.2"><style>#the-wh-logo-btca .st0{fill:#0a2458}
    #the-wh-logo-btca .st1{opacity:.5;fill:#0a2458}</style><path d="m95.5 38.5-10-13.8c-6.9-9.4-9.8-11.9-17-12.2l-5-.1v77.2L78 92.9v5.4H26.6v-5.4l14.5-3.4V12.4l-5.4.1c-7.2.3-10.4 3.1-17 12.2l-10 13.8-4.3-.7L9 4.9h86.3l4.4 32.9-4.2.7zM197.7 13.7l-12.5-3.4V4.9h48.6v5.4L220 13.7v75.9l13.8 3.4v5.4h-48.6V93l12.5-3.4V54.5h-39.3v35.1l12.5 3.4v5.4h-48.6V93l13.8-3.4V13.7l-13.8-3.4V4.9h48.6v5.4l-12.5 3.4v31.5h39.3V13.7zM340.4 34.1l-4 .9-9.5-12.3c-5.6-7-8.5-9.2-18-9.5l-15.7-.3V48h6.5c7.8 0 9.8-1.6 13.4-11.7l1.6-4.7h4.5v40.1h-4.7l-1.5-4.3c-3.4-10-5.6-11.9-13.4-11.9h-6.5v34.9l21.1-.6c8.7-.3 12-2.8 16.7-8.5l10.3-13.1 4 .6-3.2 29.6h-85V93l13.8-3.4V13.7L257 10.3V4.9h80.7l2.7 29.2zM114.1 254.6h.9l16.3-56.3-10.1-5.1v-4.8h33.5v5.3l-11.7 5.6-28.3 83.5h-12.2l-21.7-62.1h-.9L56 282.6H43.8l-27-85.1-12.8-4v-5.3h47.1v4.8l-11 3.2 16.4 58.5h.5l18.5-49.3-3.1-8.5-10-4v-4.8h43.9v4.8l-11 3.7 18.8 58zM248.5 197l-12.5-3.4v-5.4h48.6v5.4l-13.8 3.4v75.9l13.8 3.4v5.4H236v-5.4l12.5-3.4v-35.1h-39.3v35.1l12.5 3.4v5.4h-48.6v-5.4l13.8-3.4V197l-13.8-3.4v-5.4h48.6v5.4l-12.5 3.4v31.5h39.3V197zM359.6 276.3v5.4h-50.3v-5.4l14.1-3.4V197l-14.1-3.4v-5.4h50.3v5.4l-13.9 3.4v75.9l13.9 3.4zM474.9 221.8 465 208c-6.9-9.4-9.8-11.9-17-12.2l-5-.1v77.2l14.5 3.4v5.4h-51.4v-5.4l14.5-3.4v-77.2l-5.4.1c-7.2.3-10.4 3.1-17 12.2l-10 13.8-4.3-.7 4.5-32.9h86.3l4.4 32.9-4.2.7zM585.1 217.4l-4 .9-9.5-12.3c-5.6-7-8.5-9.2-18-9.5l-15.7-.3v35.1h6.5c7.8 0 9.8-1.6 13.4-11.7l1.6-4.7h4.5V255h-4.7l-1.5-4.3c-3.4-10-5.6-11.9-13.4-11.9h-6.5v34.9l21.1-.6c8.7-.3 12-2.8 16.7-8.5l10.3-13.1 4 .6-3.2 29.6h-85v-5.4l13.8-3.4V197l-13.8-3.4v-5.4h80.7l2.7 29.2zM90.8 381.3l-12.5-3.4v-5.4h48.6v5.4l-13.8 3.4v75.9l13.8 3.4v5.4H78.3v-5.4l12.5-3.4v-35.1H51.5v35.1l12.5 3.4v5.4H15.4v-5.4l13.8-3.4v-75.9l-13.8-3.4v-5.4H64v5.4l-12.5 3.4v31.5h39.3v-31.5zM200 468.1c-32 0-47.5-22.5-47.5-49 0-26.4 17.8-48.9 48.4-48.9 32.1 0 47.7 22.5 47.7 48.9 0 26.6-17.9 49-48.6 49zm-.7-90.6c-12.6 0-22.5 10.1-22.5 41.7 0 31.7 11.2 41.8 24.9 41.8 12.6 0 22.3-13.6 22.3-41.8.1-28.1-11.1-41.7-24.7-41.7zM342.8 377.9v-5.4h34.8v5.4l-11.9 4.7v50.3c0 21.4-14.1 35.4-38.3 35.4-26.3 0-41.1-11.4-41.1-36.1v-50.9l-13.4-3.4v-5.4h49.6v5.4l-13.9 3.4v51.1c0 17.3 8.5 25.1 23.5 25.1 14.2 0 22.2-10 22.2-24.8v-50l-11.5-4.8zM435.4 468.1c-9.1 0-17.2-2.3-22.9-5.1l-3.8 5H403l-1.9-32.7 6.3-.3c8.4 20.3 17.3 25.7 27.6 25.7 10.1 0 16.1-6.2 16.1-14.5 0-7.9-4.5-11.9-17.3-17.2-4.7-2.1-9.4-3.8-13.9-6-10.4-5-16.4-12.9-16.4-24.7 0-16.7 13.6-28 30.8-28 8.4 0 14.2 2.1 18.9 4.7l3.8-4.8h5.7l2.5 29.1-6.2.3c-7.9-16-14.5-21.7-23.8-21.7-7.9 0-13.1 4.8-13.1 12.5 0 7 3.5 11.2 13.6 15.6 5.1 2.3 10.7 4.3 16.1 6.9 11.9 5.7 17.5 13.8 17.5 24.9.1 18.6-14.9 30.3-33.9 30.3zM578.3 401.7l-4 .9-9.5-12.3c-5.6-7-8.5-9.2-18-9.5l-15.7-.3v35.1h6.5c7.8 0 9.8-1.6 13.4-11.7l1.6-4.7h4.5v40.1h-4.7l-1.5-4.3c-3.4-10-5.6-11.9-13.4-11.9H531V458l21.1-.6c8.7-.3 12-2.8 16.7-8.5l10.3-13.1 4 .6-3.2 29.6h-85v-5.4l13.8-3.4v-75.9l-13.8-3.4v-5.4h80.7l2.7 29.2z" class="st0"/><path d="M487.6 69.1h2.1v6.7h-2.1zM487.6 76.6h2.1v6.7h-2.1zM490.5 76.6h2.1v6.7h-2.1zM490.5 69.1h2.1v6.7h-2.1z" class="st1"/><path d="M522.7 36h-65c-.5 0-.9.4-.9.9v52.4c0 .5.4.9.9.9h64.9c.5 0 .9-.4.9-.9V36.9c0-.5-.4-.9-.8-.9zm-16.5 20.6c0-.1.1-.2.1-.3.2-.2.3-.5.3-.9v-5.7c0-.3-.1-.7-.3-.9-.1-.1-.1-.2-.1-.3v-1.1c0-.1.1-.3.3-.3h7.2c.1 0 .3.1.3.3v1.1c0 .1-.1.2-.1.3-.2.3-.3.6-.3 1v5.6c0 .3.1.7.3.9.1.1.1.2.1.3v2.6c0 .1-.1.3-.3.3h-7.2c-.1 0-.3-.1-.3-.3v-2.6zm-19.9 0c0-.1.1-.2.1-.3.2-.2.3-.5.3-1v-5.6c0-.3-.1-.7-.3-.9-.1-.1-.1-.2-.1-.3v-1.1c0-.1.1-.3.3-.3h7.2c.1 0 .3.1.3.3v1.1c0 .1-.1.2-.1.3-.2.2-.3.5-.3.9v5.7c0 .3.1.7.3.9.1.1.1.2.1.3v2.6c0 .1-.1.3-.3.3h-7.2c-.1 0-.3-.1-.3-.3v-2.6zm-20 0c0-.1.1-.2.1-.3.2-.2.3-.5.3-1v-5.6c0-.3-.1-.7-.3-.9-.1-.1-.1-.2-.1-.3v-1.1c0-.1.1-.3.3-.3h7.2c.1 0 .3.1.3.3v1.1c0 .1-.1.2-.1.3-.2.2-.3.5-.3.9v5.7c0 .3.1.7.3.9.1.1.1.2.1.3v2.6c0 .1-.1.3-.3.3h-7.2c-.1 0-.3-.1-.3-.3v-2.6zm7.8 10.5c0 .1-.1.2-.1.3-.2.2-.3.6-.3.9v6.9c0 .3.1.7.3.9.1.1.1.2.1.3V79c0 .1-.1.3-.3.3h-7.2c-.1 0-.3-.1-.3-.3v-2.6c0-.1.1-.2.1-.3.2-.2.3-.5.3-.9v-6.9c0-.3-.1-.7-.3-.9-.1-.1-.1-.2-.1-.3V66c0-.1.1-.3.3-.3h7.2c.1 0 .3.1.3.3v1.1zm.4-3.2-.2.2h-7.9c-.1 0-.3-.1-.3-.2-.1-.1-.1-.3.1-.4 1.2-1 2.6-1.5 4.2-1.5 1.5 0 3 .5 4.2 1.5-.1.1-.1.3-.1.4zM494 84.7h-7.6c-.2 0-.4-.2-.4-.4V67.9c.1-5.5 8.2-5.5 8.3 0 0 5.5 0 10.9.1 16.4-.1.2-.3.4-.4.4zm19.9-17.6c0 .1-.1.2-.1.3-.2.2-.3.6-.3.9v6.9c0 .3.1.7.3.9.1.1.1.2.1.3V79c0 .1-.1.3-.3.3h-7.2c-.1 0-.3-.1-.3-.3v-2.6c0-.1.1-.2.1-.3.2-.2.3-.5.3-.9v-6.9c0-.3-.1-.7-.3-.9-.1-.1-.1-.2-.1-.3V66c0-.1.1-.3.3-.3h7.2c.1 0 .3.1.3.3v1.1zm.4-3.2-.2.2h-7.9c-.1 0-.3-.1-.3-.2-.1-.1-.1-.3.1-.4 1.2-1 2.6-1.5 4.2-1.5s3 .5 4.2 1.5c-.1.1 0 .3-.1.4z" class="st1"/><path d="m506.9 19.8 1.9.8h16.1l.7-.9c.1-.1 0-.3-.2-.3H507c-.2 0-.3.4-.1.4zM530.4 25.2v2.4c0 .2.1.3.3.3h5.7c.1 0 .3-.1.3-.3v-2.4l1-1.3c.1-.2 0-.5-.2-.5h-7.9c-.3 0-.4.3-.2.5l1 1.3zM524.8 94.5h-69.3c-.2 0-.4.2-.4.4v2.9c0 .2.2.4.4.4h69.2c.2 0 .4-.2.4-.4v-2.9c.1-.3-.1-.4-.3-.4zM510.6 21.4l13.9 5.4c.1.1.3-.1.3-.2V25c0-.1 0-.1-.1-.1l-.3-.4c0-.1-.1-.1-.1-.1v-3h-13.7zM455.4 20.6h16.1l1.9-.8c.2-.1.1-.4-.1-.4h-18.4c-.2 0-.3.2-.2.3l.7.9zM443.6 25.2v2.4c0 .2.1.3.3.3h5.7c.1 0 .3-.1.3-.3v-2.4l1-1.3c.1-.2 0-.5-.2-.5h-7.9c-.3 0-.4.3-.2.5l1 1.3zM587.2 84.3h-63c-.2-.5-.4-1.1-.5-1.6h-6.2c-.2 0-.3.1-.4.3-.1.5-.3 1-.5 1.5s-.5.9-.8 1.4v2.5h-11.2v-2.5c-.6-.9-1-1.9-1.3-2.8-.1-.2-.2-.3-.4-.3H497c-.2 0-.3.1-.4.3-.3 1-.7 1.9-1.3 2.8v2.5h-10.2v-2.5c-.6-.9-1-1.9-1.3-2.8-.1-.2-.2-.3-.4-.3h-5.9c-.2 0-.3.1-.4.3-.3 1-.7 1.9-1.3 2.8v2.5h-11.2v-2.5c-.3-.5-.5-.9-.8-1.4-.2-.5-.4-1-.5-1.5-.1-.2-.2-.3-.4-.3h-6.2c-.1.5-.3 1.1-.5 1.6H393c-.3 0-.6.3-.6.6v5.4c0 .3.3.6.6.6h62v2c0 .3.3.5.5.5h69c.3 0 .5-.3.5-.5v-2h62c.3 0 .6-.3.6-.6v-5.4c.1-.4-.1-.6-.4-.6zM455.8 24.6l-.3.4c0 .1-.1.1-.1.1v1.7c0 .1.1.3.3.2l13.9-5.4h-13.8v3c.1-.2.1-.1 0 0zM502.9 48v-6.1c.1-.9.4-1.9.8-2.8h-7.6c.4.9.7 1.8.8 2.8V81c0 .3.3.6.6.6h4.9c.3 0 .6-.3.6-.6V48.9c-.1-.3-.1-.6-.1-.9zM483.5 46.2c.1-5.3.4-6.2.8-7.1h-7.6c.4.9.7 1.8.8 2.8V81.1c0 .3.3.6.6.6h4.9c.3 0 .6-.3.6-.6V56.9l-.1-10.7z" class="st0"/><path d="M398.8 32c0-.3.3-.5.6-.5h9.2c.3 0 .6.2.6.5v2.3c0 .3-.3.5-.6.5h-9.2c-.3 0-.6-.2-.6-.5V32zm14.9 0c0-.3.3-.5.6-.5h9.2c.3 0 .6.2.6.5v2.3c0 .3-.3.5-.6.5h-9.2c-.3 0-.6-.2-.6-.5V32zm14.8 0c0-.3.3-.5.6-.5h9.2c.3 0 .6.2.6.5v2.3c0 .3-.3.5-.6.5h-9.2c-.3 0-.6-.2-.6-.5V32zm14.9 0c0-.3.3-.5.6-.5h10.7c.3 0 .6.2.6.5v1.5H525V32c0-.3.3-.5.6-.5h10.7c.3 0 .6.2.6.5v2.3c0 .3-.3.5-.6.5H444c-.3 0-.6-.2-.6-.5V32zm17.8-3.1 29-11.6 29 11.6h-4.8l-12.1-4.8-12.1-4.8-12.2 4.8-12 4.8h-4.8zm80.2 3.1c0-.3.3-.5.6-.5h9.2c.3 0 .6.2.6.5v2.3c0 .3-.3.5-.6.5H542c-.3 0-.6-.2-.6-.5V32zm14.9 0c0-.3.3-.5.6-.5h9.2c.3 0 .6.2.6.5v2.3c0 .3-.3.5-.6.5h-9.2c-.3 0-.6-.2-.6-.5V32zm14.9 0c0-.3.3-.5.6-.5h9.2c.3 0 .6.2.6.5v2.3c0 .3-.3.5-.6.5h-9.2c-.3 0-.6-.2-.6-.5V32zm-43.8 31.7 4.2-1.8h.2l4.2 1.8c.1.1.2.2.1.3 0 .1-.1.2-.3.2h-8.3c-.1 0-.3-.1-.3-.2 0-.2.1-.3.2-.3zm.4-7.1c0-.1.1-.2.1-.3.2-.3.3-.6.3-.9v-5.7c0-.4-.1-.7-.3-.9-.1-.1-.1-.1-.1-.3v-1.1c0-.1.1-.3.3-.3h7.2c.1 0 .3.1.3.3v1.1c0 .1-.1.2-.1.3-.2.3-.3.6-.3.9v5.6c0 .4.1.7.3.9.1.1.1.1.1.3v2.6c0 .1-.1.3-.3.3h-7.2c-.1 0-.3-.1-.3-.3v-2.5zm14.6 6.9c.1-.1.3-.2.4-.3 1.1-.8 2.4-1.2 3.8-1.2 1.5 0 3 .5 4.2 1.5l.1.1c.1.1.1.2.1.3s-.1.1-.1.2H542.7c-.1 0-.2-.1-.2-.1l-.1-.1a.3.3 0 0 1 0-.4zm.3-6.9c0-.1.1-.2.1-.3.2-.3.3-.6.3-.9v-5.7c0-.4-.1-.7-.3-.9-.1-.1-.1-.1-.1-.3v-1.1c0-.1.1-.3.3-.3h7.2c.1 0 .3.1.3.3v1.1c0 .1-.1.2-.1.3-.2.3-.3.6-.3.9v5.6c0 .4.1.7.3.9.1.1.1.1.1.3v2.6c0 .1-.1.3-.3.3H543c-.1 0-.3-.1-.3-.3v-2.5zm14.4 7.1 4.2-1.8H561.6l4.2 1.8c.1 0 .1.1.1.1.1.1.1.1.1.2s-.1.1-.1.2c-.1 0-.1.1-.1.1h-8.3c-.1 0-.1 0-.1-.1-.1 0-.1-.1-.1-.1V64c-.3-.1-.3-.2-.2-.3zm.5-7.1c0-.1.1-.2.1-.3.2-.3.3-.6.3-.9v-5.7c0-.4-.1-.7-.3-.9-.1-.1-.1-.1-.1-.3v-1.1c0-.1.1-.3.3-.3h7.2c.1 0 .3.1.3.3v1.1c0 .1-.1.2-.1.3-.2.3-.3.6-.3.9v5.6c0 .4.1.7.3.9.1.1.1.1.1.3v2.6c0 .1-.1.3-.3.3h-7.2c-.1 0-.3-.1-.3-.3v-2.5zm14.5 6.9c.1-.1.3-.2.4-.3 1.1-.8 2.4-1.2 3.8-1.2 1.5 0 3 .5 4.2 1.5l.1.1c.1.1.1.2.1.3s-.1.1-.1.2H572.4c-.1 0-.2-.1-.2-.1l-.1-.1a.3.3 0 0 1 0-.4zm.3-6.9c0-.1.1-.2.1-.3.2-.3.3-.6.3-.9v-5.7c0-.4-.1-.7-.3-.9-.1-.1-.1-.1-.1-.3v-1.1c0-.1.1-.3.3-.3h7.2c.1 0 .3.1.3.3v1.1c0 .1-.1.2-.1.3-.2.3-.3.6-.3.9v5.6c0 .4.1.7.3.9.1.1.1.1.1.3v2.6c0 .1-.1.3-.3.3h-7.2c-.1 0-.3-.1-.3-.3v-2.5zm7.7 10.5c0 .1-.1.2-.1.3-.2.3-.3.6-.3.9v6.9c0 .4.1.7.3.9.1.1.1.1.1.3V79c0 .1-.1.3-.3.3h-7.2c-.1 0-.3-.1-.3-.3v-2.6c0-.1.1-.2.1-.3.2-.3.3-.6.3-.9v-6.9c0-.4-.1-.7-.3-.9-.1-.1-.1-.1-.1-.3V66c0-.1.1-.3.3-.3h7.2c.1 0 .3.1.3.3v1.1zm-14.8 0c0 .1-.1.2-.1.3-.2.3-.3.6-.3.9v6.9c0 .4.1.7.3.9.1.1.1.1.1.3V79c0 .1-.1.3-.3.3h-7.2c-.1 0-.3-.1-.3-.3v-2.6c0-.1.1-.2.1-.3.2-.3.3-.6.3-.9v-6.9c0-.4-.1-.7-.3-.9-.1-.1-.1-.1-.1-.3V66c0-.1.1-.3.3-.3h7.2c.1 0 .3.1.3.3v1.1zm-14.9 0c0 .1-.1.2-.1.3-.2.3-.3.6-.3.9v6.9c0 .4.1.7.3.9.1.1.1.1.1.3V79c0 .1-.1.3-.3.3h-7.2c-.1 0-.3-.1-.3-.3v-2.6c0-.1.1-.2.1-.3.2-.3.3-.6.3-.9v-6.9c0-.4-.1-.7-.3-.9-.1-.1-.1-.1-.1-.3V66c0-.1.1-.3.3-.3h7.2c.1 0 .3.1.3.3v1.1zm-14.9 0c0 .1-.1.2-.1.3-.2.3-.3.6-.3.9v6.9c0 .4.1.7.3.9.1.1.1.1.1.3V79c0 .1-.1.3-.3.3H528c-.1 0-.3-.1-.3-.3v-2.6c0-.1.1-.2.1-.3.2-.3.3-.6.3-.9v-6.9c0-.4-.1-.7-.3-.9-.1-.1-.1-.1-.1-.3V66c0-.1.1-.3.3-.3h7.2c.1 0 .3.1.3.3v1.1zm-82.7-2.9h-8.3c-.1 0-.3-.1-.3-.2s.1-.3.1-.3l4.2-1.8h.2l4.2 1.8c.1.1.2.2.1.3 0 .2-.1.2-.2.2zm-.4 2.9c0 .1-.1.2-.1.3-.2.3-.3.6-.3.9v6.9c0 .4.1.7.3.9.1.1.1.1.1.3V79c0 .1-.1.3-.3.3H445c-.1 0-.3-.1-.3-.3v-2.6c0-.1.1-.2.1-.3.2-.3.3-.6.3-.9v-6.9c0-.4-.1-.7-.3-.9-.1-.1-.1-.1-.1-.3V66c0-.1.1-.3.3-.3h7.2c.1 0 .3.1.3.3v1.1zM438 63.9c0 .1-.1.1-.1.1l-.1.1c-.1 0-.1.1-.1.1h-7.9c-.1 0-.1 0-.1-.1-.1-.1-.2-.1-.2-.2v-.3s0-.1.1-.1c0 0 0-.1.1-.1.3-.3.6-.5.9-.7 0 0 .1 0 .1-.1 1-.5 2-.9 3.2-.9 1.5 0 3 .5 4.2 1.5-.1.4 0 .6-.1.7zm-.4 3.2c0 .1-.1.2-.1.3-.2.3-.3.6-.3.9v6.9c0 .4.1.7.3.9.1.1.1.1.1.3V79c0 .1-.1.3-.3.3h-7.2c-.1 0-.3-.1-.3-.3v-2.6c0-.1.1-.2.1-.3.2-.3.3-.6.3-.9v-6.9c0-.4-.1-.7-.3-.9-.1-.1-.1-.1-.1-.3V66c0-.1.1-.3.3-.3h7.2c.1 0 .3.1.3.3v1.1zm-14.5-2.9c-.1 0-.1.1-.1.1h-8.4l-.1-.1V64c0-.1.1-.3.1-.3l4.2-1.8H419.1l4.2 1.8c.1.1.2.2.1.3-.1.1-.2.2-.3.2zm-.4 2.9c0 .1-.1.2-.1.3-.2.3-.3.6-.3.9v6.9c0 .4.1.7.3.9.1.1.1.1.1.3V79c0 .1-.1.3-.3.3h-7.2c-.1 0-.3-.1-.3-.3v-2.6c0-.1.1-.2.1-.3.2-.3.3-.6.3-.9v-6.9c0-.4-.1-.7-.3-.9-.1-.1-.1-.1-.1-.3V66c0-.1.1-.3.3-.3h7.2c.1 0 .3.1.3.3v1.1zm-14.4-3.2c0 .1-.1.1-.1.2-.1 0-.1.1-.1.1H400c-.1-.1-.1-.1-.1-.2-.1-.1 0-.3.1-.3l.1-.1.3-.3c.1-.1.1-.1.2-.1.1-.1.2-.1.3-.2.1-.1.2-.1.3-.2.9-.5 1.9-.7 3-.7 1.5 0 3 .5 4.2 1.5-.1 0-.1.2-.1.3zm-.5 3.2c0 .1-.1.2-.1.3-.2.3-.3.6-.3.9v6.9c0 .4.1.7.3.9.1.1.1.1.1.3V79c0 .1-.1.3-.3.3h-7.2c-.1 0-.3-.1-.3-.3v-2.6c0-.1.1-.2.1-.3.2-.3.3-.6.3-.9v-6.9c0-.4-.1-.7-.3-.9-.1-.1-.1-.1-.1-.3V66c0-.1.1-.3.3-.3h7.2c.1 0 .3.1.3.3v1.1zm-7.6-10.5c0-.1.1-.2.1-.3.2-.3.3-.6.3-.9v-5.6c0-.4-.1-.7-.3-.9-.1-.1-.1-.1-.1-.3v-1.2c0-.1.1-.3.3-.3h7.2c.1 0 .3.1.3.3v1.1c0 .1-.1.2-.1.3-.2.3-.3.6-.3.9v5.7c0 .4.1.7.3.9.1.1.1.1.1.3v2.6c0 .1-.1.3-.3.3h-7.3c-.1 0-.3-.1-.3-.3l.1-2.6zm14.8 0c0-.1.1-.2.1-.3.2-.3.3-.6.3-.9v-5.6c0-.4-.1-.7-.3-.9-.1-.1-.1-.1-.1-.3v-1.2c0-.1.1-.3.3-.3h7.2c.1 0 .3.1.3.3v1.1c0 .1-.1.2-.1.3-.2.3-.3.6-.3.9v5.7c0 .4.1.7.3.9.1.1.1.1.1.3v2.6c0 .1-.1.3-.3.3h-7.2c-.1 0-.3-.1-.3-.3v-2.6zm14.9 0c0-.1.1-.2.1-.3.2-.3.3-.6.3-.9v-5.6c0-.4-.1-.7-.3-.9-.1-.1-.1-.1-.1-.3v-1.2c0-.1.1-.3.3-.3h7.2c.1 0 .3.1.3.3v1.1c0 .1-.1.2-.1.3-.2.3-.3.6-.3.9v5.7c0 .4.1.7.3.9.1.1.1.1.1.3v2.6c0 .1-.1.3-.3.3h-7.2c-.1 0-.3-.1-.3-.3v-2.6zm14.8 0c0-.1.1-.2.1-.3.2-.3.3-.6.3-.9v-5.6c0-.4-.1-.7-.3-.9-.1-.1-.1-.1-.1-.3v-1.2c0-.1.1-.3.3-.3h7.2c.1 0 .3.1.3.3v1.1c0 .1-.1.2-.1.3-.2.3-.3.6-.3.9v5.7c0 .4.1.7.3.9.1.1.1.1.1.3v2.6c0 .1-.1.3-.3.3H445c-.1 0-.3-.1-.3-.3v-2.6zm-51.6-26h1.6s.1 0 .1.1v6.7c0 .2.1.3.3.3h60.4c.3.5.5.9.7 1.5h-63.1c-.2 0-.4.2-.4.4v1.9c0 .3.2.4.4.4h63.8v1.7h-62c-.1 0-.2.1-.2.2v37.9h67.6c.3 0 .6-.3.6-.6V81l.1-38.8v-.3c.1-.7.3-1.5.5-2.1.3-.7.6-1.4 1-2H515.9c.4.7.7 1.3 1 2 .3.7.4 1.4.5 2.1v.3l.1 38.8c0 .3.3.6.6.6l65.9-.1h1.5c.1 0 .2-.1.2-.2V43.7c0-.1-.1-.2-.2-.2h-62v-1.7h63.8c.3 0 .4-.2.4-.4v-1.9c0-.2-.1-.4-.4-.4h-63.1c.2-.5.5-1 .7-1.5h60.5c.2 0 .3-.1.3-.3v-6.7s0-.1.1-.1h1.6c.3 0 .4-.2.4-.4v-.9c0-.3-.2-.4-.4-.4h-60.2c-.3 0-.5-.1-.8-.1L491 14.4v-3c.7-.2 1.7-.4 2.6-.1 4 1.4 4.9.9 4.9.8-.7-1-.5-3.1-.5-3.1.3-1.9.1-2.3.1-2.4-.1.1-1.3.7-4-.1-1.5-.5-2.5-.6-3.2-.7 0-.4-.3-.7-.7-.7-.3.1-.6.3-.6.7v8.5l-35.5 14.3c-.3.1-.5.1-.8.1h-60.2c-.3 0-.4.2-.4.4v.9c0 .4.1.6.4.6z" class="st0"/><path d="m511.6 39-21.5 24.1L468.6 39l-.3.2 21.6 24.2h.5l21.5-24.2z" class="st0"/><path d="M490.8 62.1h-1.3c-.3 0-.5.2-.5.5v3.8c0 .3.2.5.5.5h1.3c.3 0 .5-.2.5-.5v-3.8c0-.2-.2-.5-.5-.5z" class="st0"/></svg>